<?xml version="1.0" encoding="UTF-8"?>
<svg width="267px" height="118px" viewBox="0 0 267 118" version="1.1" xmlns="http://www.w3.org/2000/svg" xmlns:xlink="http://www.w3.org/1999/xlink">
    <!-- Generator: Sketch 52.3 (67297) - http://www.bohemiancoding.com/sketch -->
    <title>Logo</title>
    <desc>Created with Sketch.</desc>
    <g id="Symbols" stroke="none" stroke-width="1" fill="none" fill-rule="evenodd">
        <g id="Header" transform="translate(-135.000000, -61.000000)" fill="#003A65">
            <g id="Logo" transform="translate(135.000000, 61.000000)">
                <path d="M142.999437,25.0263588 C142.999437,18.2733359 148.122415,13.1831221 154.873508,13.1831221 C158.02888,13.1831221 161.183352,14.302771 163.45668,16.4407328 L161.183352,20.8184427 C159.419261,18.9520611 157.248142,17.9337481 154.839739,17.9337481 C150.768551,17.9337481 147.748705,20.8522214 147.748705,25.0605878 C147.748705,29.2680534 150.734332,32.1865267 154.805519,32.1865267 C156.060374,32.1865267 157.68939,31.9491756 159.453481,31.0668779 L160.437283,35.7161679 C158.605204,36.4966794 156.841113,36.9376031 154.805519,36.9376031 C148.156184,36.9376031 142.999437,31.8136107 142.999437,25.0263588" id="Fill-1"></path>
                <polygon id="Fill-2" points="165.527843 36.9380534 170.039828 36.9380534 170.039828 13.1831221 165.527843 13.1831221"></polygon>
                <path d="M179.70901,29.913 C178.385717,30.0827939 177.605428,30.7615191 177.605428,31.7793817 C177.605428,32.9332595 178.521243,33.6462137 180.014282,33.6462137 C182.252939,33.6462137 183.915723,32.0847405 183.915723,30.0827939 L183.915723,29.4040687 L179.70901,29.913 Z M180.963865,19.5627786 C185.985086,19.5627786 188.393939,21.8363053 188.393939,26.4855954 L188.393939,36.9713817 L183.915723,36.9713817 L183.915723,34.6640763 C182.830164,36.3268855 180.963865,37.3451985 178.690988,37.3451985 C175.332101,37.3451985 172.957917,35.139229 172.957917,32.0171832 C172.957917,29.0649313 175.094818,26.9945267 178.385717,26.6891679 L183.033678,26.2820229 C183.644221,26.2140153 183.915723,26.0104427 183.915723,25.6032977 L183.915723,25.3317176 C183.915723,24.2458473 182.863933,23.6009008 180.963865,23.6009008 C178.792745,23.6009008 177.265938,24.4156412 176.723383,25.8068702 L173.398715,23.4315573 C174.450056,20.9540076 177.130411,19.5627786 180.963865,19.5627786 Z" id="Fill-3"></path>
                <path d="M201.320702,19.5627786 C201.931245,19.5627786 202.44003,19.6645649 202.983035,19.8001298 L202.983035,24.6192137 C202.372492,24.4156412 201.660192,24.3476336 200.947442,24.3476336 C197.996034,24.3476336 196.673191,26.0104427 196.673191,29.2680534 L196.673191,36.9376031 L192.194524,36.9376031 L192.194524,19.9699237 L196.503445,19.9699237 L196.503445,22.7528321 C197.41926,20.7842137 198.946067,19.5627786 201.320702,19.5627786" id="Fill-4"></path>
                <path d="M220.48932,36.9376031 L216.147081,36.9376031 L216.147081,34.3587176 C214.993533,36.089084 213.29743,37.3451985 210.7526,37.3451985 C206.81739,37.3451985 204.883553,34.697855 204.883553,30.5241679 L204.883553,19.9699237 L209.463526,19.9699237 L209.463526,29.4040687 C209.463526,31.8136107 210.345572,33.0350458 212.313177,33.0350458 C214.823788,33.0350458 215.977336,30.9988702 215.977336,28.0803969 L215.977336,19.9699237 L220.48932,19.9699237 L220.48932,36.9376031" id="Fill-5"></path>
                <path d="M224.49387,19.9699237 L228.83611,19.9699237 L228.83611,22.5492595 C230.125634,20.5806412 232.093239,19.5627786 234.366116,19.5627786 C238.165801,19.5627786 240.336921,22.0060992 240.336921,26.3158015 L240.336921,36.9376031 L235.756948,36.9376031 L235.756948,27.537687 C235.756948,25.128145 234.671388,23.8724809 232.602025,23.8724809 C230.226941,23.8724809 228.972086,25.6032977 228.972086,28.8271298 L228.972086,36.9376031 L224.49387,36.9376031 L224.49387,19.9699237" id="Fill-6"></path>
                <path d="M244.612973,36.9376031 L249.091639,36.9376031 L249.091639,19.9699237 L244.612973,19.9699237 L244.612973,36.9376031 Z M243.968661,15.1175115 C243.968661,13.4547023 245.190197,12.2328168 246.818312,12.2328168 C248.480646,12.2328168 249.702182,13.4547023 249.702182,15.1175115 C249.702182,16.7460916 248.480646,17.9679771 246.818312,17.9679771 C245.190197,17.9679771 243.968661,16.7460916 243.968661,15.1175115 Z" id="Fill-7"></path>
                <path d="M260.049445,19.5627786 C263.069292,19.5627786 265.27418,20.478855 266.800988,22.0741069 L264.290378,25.3317176 C263.272806,24.2120687 261.406508,23.6009008 259.676185,23.6009008 C258.285804,23.6009008 257.539285,24.0422748 257.539285,24.7890076 C257.539285,25.6032977 258.353342,25.7730916 261.474946,26.4855954 C264.697857,27.2323282 266.902745,28.4199847 266.902745,31.8136107 C266.902745,35.546374 264.256609,37.3451985 259.574879,37.3451985 C256.182223,37.3451985 253.501867,36.3268855 252.043047,34.5285115 L254.655415,31.1348855 C255.740975,32.3905496 257.505066,33.3404046 260.049445,33.3404046 C261.305201,33.3404046 262.288553,33.0012672 262.288553,32.0509618 C262.288553,31.1686641 261.440727,30.9650916 258.523088,30.320145 C255.876951,29.7436565 252.891324,28.5897786 252.891324,24.9588015 C252.891324,21.4971679 255.605449,19.5627786 260.049445,19.5627786" id="Fill-8"></path>
                <path d="M146.216044,56.1450305 L146.216044,49.9099466 L148.536648,49.9099466 L148.536648,56.1450305 C148.536648,58.0352824 149.863093,59.1963664 151.62043,59.1963664 C153.377767,59.1963664 154.687553,58.0352824 154.687553,56.1450305 L154.687553,49.9099466 L157.008607,49.9099466 L157.008607,56.1450305 C157.008607,59.3287786 154.704212,61.5176336 151.62043,61.5176336 C148.536648,61.5176336 146.216044,59.3287786 146.216044,56.1450305" id="Fill-9"></path>
                <path d="M158.59755,53.2265573 L160.719592,53.2265573 L160.719592,54.4867252 C161.349946,53.5247099 162.310786,53.0274885 163.42156,53.0274885 C165.278403,53.0274885 166.339649,54.2214504 166.339649,56.3274351 L166.339649,61.5176336 L164.101442,61.5176336 L164.101442,56.9241908 C164.101442,55.7468931 163.571044,55.1334733 162.559776,55.1334733 C161.399474,55.1334733 160.786229,55.9792901 160.786229,57.5547252 L160.786229,61.5176336 L158.59755,61.5176336 L158.59755,53.2265573" id="Fill-10"></path>
                <path d="M168.426121,61.5176336 L170.614801,61.5176336 L170.614801,53.2265573 L168.426121,53.2265573 L168.426121,61.5176336 Z M168.111395,50.8552977 C168.111395,50.0423588 168.70798,49.4456031 169.504027,49.4456031 C170.316734,49.4456031 170.913319,50.0423588 170.913319,50.8552977 C170.913319,51.6511221 170.316734,52.2478779 169.504027,52.2478779 C168.70798,52.2478779 168.111395,51.6511221 168.111395,50.8552977 Z" id="Fill-11"></path>
                <polyline id="Fill-12" points="171.5923 53.2265573 174.045728 53.2265573 176.151111 58.3672137 178.272703 53.2265573 180.710373 53.2265573 176.979577 61.5176336 175.322196 61.5176336 171.5923 53.2265573"></polyline>
                <path d="M184.919337,54.8848626 C183.875201,54.8848626 183.178659,55.4320763 182.962988,56.4436336 L186.693334,56.4436336 C186.593828,55.5478244 185.980583,54.8848626 184.919337,54.8848626 Z M184.985975,53.0274885 C187.52225,53.0274885 189.080575,54.7686641 189.080575,57.4385267 L189.080575,58.0352824 L182.980098,58.0352824 L182.996757,58.0686107 C183.261956,59.1797023 184.256565,59.6602595 185.217855,59.6602595 C186.212464,59.6602595 186.991852,59.3121145 187.572228,58.8148931 L188.48354,60.6222748 C187.804108,61.1861527 186.77618,61.7167023 185.184536,61.7167023 C182.383062,61.7167023 180.74189,59.8431145 180.74189,57.3718702 C180.74189,54.9177405 182.383062,53.0274885 184.985975,53.0274885 Z" id="Fill-13"></path>
                <path d="M194.947821,53.0274885 C195.246339,53.0274885 195.494428,53.0770305 195.759627,53.143687 L195.759627,55.4982824 C195.46156,55.3987481 195.113514,55.3654198 194.765019,55.3654198 C193.322858,55.3654198 192.676745,56.1779084 192.676745,57.7700076 L192.676745,61.5176336 L190.488066,61.5176336 L190.488066,53.2265573 L192.593449,53.2265573 L192.593449,54.5862595 C193.041,53.6242443 193.787069,53.0274885 194.947821,53.0274885" id="Fill-14"></path>
                <path d="M200.184713,53.0274885 C201.660192,53.0274885 202.737648,53.4751679 203.484167,54.2543282 L202.257228,55.8464275 C201.760148,55.2992137 200.847936,55.0006107 200.002361,55.0006107 C199.322479,55.0006107 198.958224,55.2163435 198.958224,55.5811527 C198.958224,55.9792901 199.356248,56.0621603 200.880804,56.4103053 C202.455789,56.7751145 203.533695,57.3556565 203.533695,59.0139618 C203.533695,60.8380076 202.240568,61.7167023 199.952833,61.7167023 C198.295002,61.7167023 196.985216,61.2194809 196.272465,60.3403359 L197.548933,58.6820305 C198.079331,59.2959008 198.941565,59.7602443 200.184713,59.7602443 C200.798408,59.7602443 201.278828,59.5940534 201.278828,59.1301603 C201.278828,58.6986947 200.864595,58.5991603 199.438644,58.2843435 C198.145518,58.0024046 196.686698,57.4385267 196.686698,55.6640229 C196.686698,53.9723893 198.013143,53.0274885 200.184713,53.0274885" id="Fill-15"></path>
                <path d="M204.941185,61.5176336 L207.129415,61.5176336 L207.129415,53.2265573 L204.941185,53.2265573 L204.941185,61.5176336 Z M204.626459,50.8552977 C204.626459,50.0423588 205.223044,49.4456031 206.019091,49.4456031 C206.831347,49.4456031 207.427933,50.0423588 207.427933,50.8552977 C207.427933,51.6511221 206.831347,52.2478779 206.019091,52.2478779 C205.223044,52.2478779 204.626459,51.6511221 204.626459,50.8552977 Z" id="Fill-16"></path>
                <path d="M212.367207,61.6005038 C210.825091,61.6005038 209.929988,60.8708855 209.929988,58.9806336 L209.929988,55.0672672 L208.421191,55.0672672 L208.421191,53.2265573 L209.929988,53.2265573 L209.929988,51.004374 L212.118218,51.004374 L212.118218,53.2265573 L214.224051,53.2265573 L214.224051,55.0672672 L212.118218,55.0672672 L212.118218,58.6653664 C212.118218,59.1963664 212.383417,59.4116489 212.947133,59.4116489 C213.27897,59.4116489 213.560828,59.378771 214.157863,59.2792366 L214.157863,61.3518931 C213.544169,61.5014198 212.914265,61.6005038 212.367207,61.6005038" id="Fill-17"></path>
                <path d="M220.75497,49.5451374 C221.483929,49.5451374 222.047646,50.1085649 222.047646,50.8381832 C222.047646,51.5682519 221.483929,52.1321298 220.75497,52.1321298 C220.02556,52.1321298 219.461843,51.5682519 219.461843,50.8381832 C219.461843,50.1085649 220.02556,49.5451374 220.75497,49.5451374 Z M218.367278,58.0852748 C217.721165,58.168145 217.339801,58.499626 217.339801,58.9972977 C217.339801,59.5611756 217.787352,59.9093206 218.516762,59.9093206 C219.610877,59.9093206 220.423583,59.146374 220.423583,58.168145 L220.423583,57.8366641 L218.367278,58.0852748 Z M217.339801,49.5451374 C218.069211,49.5451374 218.632927,50.1085649 218.632927,50.8381832 C218.632927,51.5682519 218.069211,52.1321298 217.339801,52.1321298 C216.610391,52.1321298 216.046675,51.5682519 216.046675,50.8381832 C216.046675,50.1085649 216.610391,49.5451374 217.339801,49.5451374 Z M218.980973,53.0274885 C221.434401,53.0274885 222.611363,54.1385802 222.611363,56.4103053 L222.611363,61.5342977 L220.423583,61.5342977 L220.423583,60.4069924 C219.892735,61.2194809 218.980973,61.7167023 217.870199,61.7167023 C216.229027,61.7167023 215.068275,60.6389389 215.068275,59.1130458 C215.068275,57.6704733 216.112862,56.658916 217.721165,56.5098397 L219.992241,56.310771 C220.290759,56.2778931 220.423583,56.1779084 220.423583,55.9792901 L220.423583,55.8464275 C220.423583,55.3158779 219.909395,55.0006107 218.980973,55.0006107 C217.919727,55.0006107 217.174108,55.3987481 216.908459,56.0788244 L215.284396,54.9177405 C215.797685,53.7075649 217.10747,53.0274885 218.980973,53.0274885 Z" id="Fill-18"></path>
                <path d="M228.92571,53.0274885 C229.224678,53.0274885 229.472767,53.0770305 229.737966,53.143687 L229.737966,55.4982824 C229.439899,55.3987481 229.091853,55.3654198 228.743358,55.3654198 C227.301197,55.3654198 226.655084,56.1779084 226.655084,57.7700076 L226.655084,61.5176336 L224.466405,61.5176336 L224.466405,53.2265573 L226.571788,53.2265573 L226.571788,54.5862595 C227.019339,53.6242443 227.765408,53.0274885 228.92571,53.0274885" id="Fill-19"></path>
                <path d="M234.213481,54.8848626 C233.168894,54.8848626 232.472352,55.4320763 232.257132,56.4436336 L235.987027,56.4436336 C235.887521,55.5478244 235.274277,54.8848626 234.213481,54.8848626 Z M234.279668,53.0274885 C236.816393,53.0274885 238.374718,54.7686641 238.374718,57.4385267 L238.374718,58.0352824 L232.273791,58.0352824 L232.29045,58.0686107 C232.555649,59.1797023 233.550258,59.6602595 234.511998,59.6602595 C235.506607,59.6602595 236.285545,59.3121145 236.865921,58.8148931 L237.777683,60.6222748 C237.098251,61.1861527 236.070324,61.7167023 234.47868,61.7167023 C231.677206,61.7167023 230.035583,59.8431145 230.035583,57.3718702 C230.035583,54.9177405 231.677206,53.0274885 234.279668,53.0274885 Z" id="Fill-20"></path>
                <path d="M243.080762,53.0274885 C244.555791,53.0274885 245.633696,53.4751679 246.379766,54.2543282 L245.153277,55.8464275 C244.655297,55.2992137 243.743985,55.0006107 242.89841,55.0006107 C242.218528,55.0006107 241.853823,55.2163435 241.853823,55.5811527 C241.853823,55.9792901 242.251847,56.0621603 243.776853,56.4103053 C245.351838,56.7751145 246.429293,57.3556565 246.429293,59.0139618 C246.429293,60.8380076 245.136167,61.7167023 242.848432,61.7167023 C241.191051,61.7167023 239.881265,61.2194809 239.168514,60.3403359 L240.444531,58.6820305 C240.974929,59.2959008 241.837164,59.7602443 243.080762,59.7602443 C243.694007,59.7602443 244.174877,59.5940534 244.174877,59.1301603 C244.174877,58.6986947 243.760644,58.5991603 242.334693,58.2843435 C241.041567,58.0024046 239.582297,57.4385267 239.582297,55.6640229 C239.582297,53.9723893 240.909192,53.0274885 243.080762,53.0274885" id="Fill-21"></path>
                <path d="M151.106691,77.9574656 C151.852761,77.9574656 152.300312,77.5097863 152.300312,76.8297099 C152.300312,76.1000916 151.802782,75.6357481 151.106691,75.6357481 L148.536648,75.6357481 L148.536648,77.9574656 L151.106691,77.9574656 Z M151.106691,73.3144809 C151.802782,73.3144809 152.300312,72.8330229 152.300312,72.1200687 C152.300312,71.4571069 151.852761,70.992313 151.106691,70.992313 L148.536648,70.992313 L148.536648,73.3144809 L151.106691,73.3144809 Z M146.216044,68.6710458 L151.156669,68.6710458 C153.344449,68.6710458 154.621366,70.0640763 154.621366,71.9376641 C154.621366,73.1487405 154.057649,74.0440992 153.178755,74.4751145 C154.073858,74.9227939 154.621366,75.8181527 154.621366,77.0121145 C154.621366,78.8861527 153.344449,80.2791832 151.156669,80.2791832 L146.216044,80.2791832 L146.216044,68.6710458 Z" id="Fill-22"></path>
                <path d="M159.061761,76.846374 C158.415648,76.9292443 158.034283,77.2607252 158.034283,77.7583969 C158.034283,78.3222748 158.481835,78.6704198 159.211245,78.6704198 C160.305359,78.6704198 161.117616,77.9074733 161.117616,76.9292443 L161.117616,76.5977634 L159.061761,76.846374 Z M159.675455,71.7885878 C162.128884,71.7885878 163.305845,72.8996794 163.305845,75.1714046 L163.305845,80.2958473 L161.117616,80.2958473 L161.117616,79.1680916 C160.587218,79.9805802 159.675455,80.4778015 158.564681,80.4778015 C156.923509,80.4778015 155.762757,79.4000382 155.762757,77.8745954 C155.762757,76.4320229 156.807794,75.4204656 158.415648,75.2709389 L160.686723,75.0718702 C160.985241,75.0389924 161.117616,74.939458 161.117616,74.7403893 L161.117616,74.6079771 C161.117616,74.0769771 160.603877,73.7621603 159.675455,73.7621603 C158.614209,73.7621603 157.86859,74.1602977 157.602941,74.8394733 L155.978879,73.6788397 C156.492167,72.4686641 157.802403,71.7885878 159.675455,71.7885878 Z" id="Fill-23"></path>
                <path d="M172.786821,80.2791832 L170.664779,80.2791832 L170.664779,79.0190153 C170.101062,79.8643817 169.272147,80.4778015 168.028998,80.4778015 C166.105968,80.4778015 165.160887,79.1847557 165.160887,77.1449771 L165.160887,71.9872061 L167.399094,71.9872061 L167.399094,76.5977634 C167.399094,77.7750611 167.829987,78.3718168 168.791727,78.3718168 C170.018216,78.3718168 170.581933,77.3769237 170.581933,75.9505649 L170.581933,71.9872061 L172.786821,71.9872061 L172.786821,80.2791832" id="Fill-24"></path>
                <path d="M178.653617,71.7885878 C179.913425,71.7885878 181.00799,72.2033893 181.803137,72.9992137 L180.560438,74.7570534 C180.012931,74.2098397 179.383027,73.9279008 178.653617,73.9279008 C177.37715,73.9279008 176.482047,74.8394733 176.482047,76.1334198 C176.482047,77.4098015 177.37715,78.3389389 178.653617,78.3389389 C179.383027,78.3389389 180.04625,78.0403359 180.609966,77.4931221 L181.819796,79.2505115 C181.024199,80.0467863 179.896766,80.4778015 178.620298,80.4778015 C176.017836,80.4778015 174.22718,78.7037481 174.22718,76.1334198 C174.22718,73.5630916 176.050705,71.7885878 178.653617,71.7885878" id="Fill-25"></path>
                <path d="M185.250723,73.2311603 C185.863968,72.2529313 186.759071,71.7885878 187.869845,71.7885878 C189.759556,71.7885878 190.804143,72.9825496 190.804143,75.1385267 L190.804143,80.2791832 L188.565936,80.2791832 L188.565936,75.6852901 C188.565936,74.5079924 188.035538,73.8945725 187.057138,73.8945725 C185.863968,73.8945725 185.250723,74.7237252 185.250723,76.3158244 L185.250723,80.2791832 L183.062044,80.2791832 L183.062044,68.6710458 L185.250723,68.6710458 L185.250723,73.2311603" id="Fill-26"></path>
                <polyline id="Fill-27" points="199.30672 73.6955038 195.112614 78.2556183 199.439094 78.2556183 199.439094 80.2791832 192.144997 80.2791832 192.144997 78.5713359 196.305784 74.010771 192.426855 74.010771 192.426855 71.9872061 199.30672 71.9872061 199.30672 73.6955038"></polyline>
                <path d="M204.295073,73.6459618 C203.250936,73.6459618 202.554395,74.1931756 202.339174,75.2047328 L206.069069,75.2047328 C205.969563,74.309374 205.356319,73.6459618 204.295073,73.6459618 Z M204.36171,71.7885878 C206.898435,71.7885878 208.456761,73.5297634 208.456761,76.199626 L208.456761,76.7963817 L202.355833,76.7963817 L202.372492,76.8297099 C202.637691,77.9408015 203.6323,78.4218092 204.59359,78.4218092 C205.588199,78.4218092 206.367587,78.0732137 206.947963,77.5759924 L207.859275,79.383374 C207.180293,79.9472519 206.151916,80.4778015 204.560272,80.4778015 C201.759248,80.4778015 200.117626,78.6042137 200.117626,76.1334198 C200.117626,73.6788397 201.759248,71.7885878 204.36171,71.7885878 Z" id="Fill-28"></path>
                <path d="M209.863801,71.9872061 L211.985393,71.9872061 L211.985393,73.2478244 C212.615297,72.2862595 213.577037,71.7885878 214.687361,71.7885878 C216.544204,71.7885878 217.60545,72.9825496 217.60545,75.0885344 L217.60545,80.2791832 L215.367243,80.2791832 L215.367243,75.6852901 C215.367243,74.5079924 214.836845,73.8945725 213.825577,73.8945725 C212.665275,73.8945725 212.05203,74.7403893 212.05203,76.3158244 L212.05203,80.2791832 L209.863801,80.2791832 L209.863801,71.9872061" id="Fill-29"></path>
                <path d="M222.677099,80.3620534 C221.134983,80.3620534 220.23943,79.6324351 220.23943,77.7417328 L220.23943,73.827916 L218.731083,73.827916 L218.731083,71.9872061 L220.23943,71.9872061 L220.23943,69.7654733 L222.42811,69.7654733 L222.42811,71.9872061 L224.533943,71.9872061 L224.533943,73.827916 L222.42811,73.827916 L222.42811,77.426916 C222.42811,77.9574656 222.693309,78.1731985 223.257025,78.1731985 C223.588411,78.1731985 223.87027,78.1398702 224.467305,78.0403359 L224.467305,80.1129924 C223.854061,80.2625191 223.223707,80.3620534 222.677099,80.3620534" id="Fill-30"></path>
                <path d="M230.483585,71.7885878 C230.782553,71.7885878 231.030642,71.8381298 231.295841,71.9047863 L231.295841,74.2593817 C230.997774,74.1602977 230.649728,74.1265191 230.301233,74.1265191 C228.859073,74.1265191 228.212509,74.939458 228.212509,76.5311069 L228.212509,80.2791832 L226.02428,80.2791832 L226.02428,71.9872061 L228.129663,71.9872061 L228.129663,73.3473588 C228.577214,72.3853435 229.323283,71.7885878 230.483585,71.7885878" id="Fill-31"></path>
                <path d="M239.848847,80.2791832 L237.726804,80.2791832 L237.726804,79.0190153 C237.163088,79.8643817 236.334622,80.4778015 235.091024,80.4778015 C233.167993,80.4778015 232.223363,79.1847557 232.223363,77.1449771 L232.223363,71.9872061 L234.46112,71.9872061 L234.46112,76.5977634 C234.46112,77.7750611 234.892012,78.3718168 235.853752,78.3718168 C237.080691,78.3718168 237.644408,77.3769237 237.644408,75.9505649 L237.644408,71.9872061 L239.848847,71.9872061 L239.848847,80.2791832" id="Fill-32"></path>
                <path d="M251.866548,71.7885878 C253.7396,71.7885878 254.999408,72.9992137 254.999408,75.2376107 L254.999408,80.2791832 L252.794519,80.2791832 L252.794519,75.6852901 C252.794519,74.4917786 252.280781,73.8945725 251.302831,73.8945725 C250.059233,73.8945725 249.478857,74.7737176 249.478857,76.3158244 L249.478857,80.2791832 L247.291078,80.2791832 L247.291078,75.6852901 C247.291078,74.4917786 246.760229,73.8945725 245.78228,73.8945725 C244.55489,73.8945725 243.991624,74.7737176 243.991624,76.3158244 L243.991624,80.2791832 L241.803395,80.2791832 L241.803395,71.9872061 L243.925437,71.9872061 L243.925437,73.2644885 C244.422516,72.3853435 245.234772,71.7885878 246.511239,71.7885878 C247.688201,71.7885878 248.600413,72.2862595 249.080833,73.3306947 C249.611681,72.3853435 250.573422,71.7885878 251.866548,71.7885878" id="Fill-33"></path>
                <path d="M151.106691,96.7185649 C151.852761,96.7185649 152.300312,96.2704351 152.300312,95.5908092 C152.300312,94.8611908 151.802782,94.3963969 151.106691,94.3963969 L148.536648,94.3963969 L148.536648,96.7185649 L151.106691,96.7185649 Z M151.106691,92.0751298 C151.802782,92.0751298 152.300312,91.5941221 152.300312,90.8811679 C152.300312,90.2177557 151.852761,89.7534122 151.106691,89.7534122 L148.536648,89.7534122 L148.536648,92.0751298 L151.106691,92.0751298 Z M146.216044,87.4316947 L151.156669,87.4316947 C153.344449,87.4316947 154.621366,88.8247252 154.621366,90.698313 C154.621366,91.9093893 154.057649,92.8047481 153.178755,93.2357634 C154.073858,93.6834427 154.621366,94.5792519 154.621366,95.7727634 C154.621366,97.6468015 153.344449,99.0398321 151.156669,99.0398321 L146.216044,99.0398321 L146.216044,87.4316947 Z" id="Fill-34"></path>
                <path d="M159.061761,95.6070229 C158.415648,95.6898931 158.034283,96.0218244 158.034283,96.5190458 C158.034283,97.0829237 158.481835,97.4315191 159.211245,97.4315191 C160.305359,97.4315191 161.117616,96.6681221 161.117616,95.6898931 L161.117616,95.3584122 L159.061761,95.6070229 Z M159.675455,90.5492366 C162.128884,90.5492366 163.305845,91.6603282 163.305845,93.9320534 L163.305845,99.0564962 L161.117616,99.0564962 L161.117616,97.9287405 C160.587218,98.741229 159.675455,99.2384504 158.564681,99.2384504 C156.923509,99.2384504 155.762757,98.1611374 155.762757,96.6352443 C155.762757,95.1926718 156.807794,94.1811145 158.415648,94.0320382 L160.686723,93.8325191 C160.985241,93.7996412 161.117616,93.7001069 161.117616,93.5010382 L161.117616,93.368626 C161.117616,92.837626 160.603877,92.5228092 159.675455,92.5228092 C158.614209,92.5228092 157.86859,92.9209466 157.602941,93.6005725 L155.978879,92.4399389 C156.492167,91.229313 157.802403,90.5492366 159.675455,90.5492366 Z" id="Fill-35"></path>
                <path d="M168.460341,90.5492366 C169.935369,90.5492366 171.012825,90.996916 171.759344,91.7765267 L170.532405,93.368626 C170.034875,92.8209618 169.123113,92.5228092 168.277538,92.5228092 C167.597656,92.5228092 167.233401,92.738542 167.233401,93.1029008 C167.233401,93.5010382 167.631425,93.5843588 169.155981,93.9320534 C170.730966,94.297313 171.808872,94.877855 171.808872,96.5357099 C171.808872,98.3597557 170.515745,99.2384504 168.22801,99.2384504 C166.570179,99.2384504 165.260393,98.741229 164.547642,97.8625344 L165.82411,96.204229 C166.354508,96.8176489 167.216742,97.2819924 168.460341,97.2819924 C169.073585,97.2819924 169.554005,97.1158015 169.554005,96.6519084 C169.554005,96.2204427 169.139772,96.1209084 167.713821,95.8060916 C166.420695,95.5241527 164.961875,94.9602748 164.961875,93.1862214 C164.961875,91.4945878 166.28832,90.5492366 168.460341,90.5492366" id="Fill-36"></path>
                <path d="M176.747696,92.4066107 C175.70311,92.4066107 175.007019,92.9538244 174.791347,93.9653817 L178.521243,93.9653817 C178.422187,93.0700229 177.808492,92.4066107 176.747696,92.4066107 Z M176.813884,90.5492366 C179.350609,90.5492366 180.908934,92.2908626 180.908934,94.9602748 L180.908934,95.5570305 L174.808007,95.5570305 L174.824666,95.5908092 C175.089865,96.7014504 176.084474,97.182458 177.046214,97.182458 C178.040823,97.182458 178.819761,96.8338626 179.400137,96.3366412 L180.311899,98.1444733 C179.632467,98.7083511 178.60454,99.2384504 177.012895,99.2384504 C174.211422,99.2384504 172.569799,97.3648626 172.569799,94.8940687 C172.569799,92.4399389 174.211422,90.5492366 176.813884,90.5492366 Z" id="Fill-37"></path>
                <polygon id="Fill-38" points="182.316425 99.0398321 184.520863 99.0398321 184.520863 87.4316947 182.316425 87.4316947"></polygon>
                <path d="M0,79.6486489 L0,75.917687 L0.314726813,75.917687 C0.696091062,79.4500305 2.1053828,79.9305878 3.51467454,79.9305878 C4.77448229,79.9305878 6.05094941,79.2342977 6.05094941,77.7583969 C6.05094941,76.6144275 5.18871501,76.0834275 3.89558853,75.5862061 L2.68575885,75.1051985 C0.994608769,74.4422366 0.0495278246,73.3473588 0.0495278246,71.8881221 C0.0495278246,70.1802748 1.67449073,69.0029771 3.72989545,69.0029771 C4.8739882,69.0029771 6.13379595,69.2844656 6.89652445,69.7325954 L6.89652445,72.8996794 L6.58134739,72.8996794 C6.2166425,70.1969389 4.92351602,69.5497405 3.69657673,69.5497405 C2.52006577,69.5497405 1.40884148,70.2298168 1.40884148,71.3904504 C1.40884148,72.6344046 2.33726307,73.0487557 3.13331029,73.3640229 L4.67497639,73.9607786 C6.23330185,74.5575344 7.46024115,75.4204656 7.46024115,77.1783053 C7.46024115,79.3504962 5.6529258,80.4778015 3.51467454,80.4778015 C2.08872344,80.4778015 0.828915683,80.1301069 0,79.6486489" id="Fill-39"></path>
                <path d="M10.0609022,78.1565344 L10.0609022,72.7506031 L8.71824789,72.7506031 L8.71824789,72.1533969 L10.0609022,72.1533969 L10.0609022,70.6774962 L11.5859089,69.6659389 L11.5859089,72.1533969 L13.8907538,72.1533969 L13.8907538,72.7506031 L11.5859089,72.7506031 L11.5859089,77.8745954 C11.5859089,79.0685573 12.0339106,79.4666947 12.7795295,79.4666947 C13.3432462,79.4666947 13.8241164,79.2505115 14.1726121,78.9190305 L14.3049865,79.035229 C13.8740944,79.7815115 13.2108718,80.4778015 12.0667791,80.4778015 C10.9064772,80.4778015 10.0609022,79.8310534 10.0609022,78.1565344" id="Fill-40"></path>
                <path d="M16.8570202,78.2893969 C17.4536054,78.2893969 17.9511349,78.7866183 17.9511349,79.383374 C17.9511349,79.9805802 17.4536054,80.4778015 16.8570202,80.4778015 C16.2599848,80.4778015 15.7629056,79.9805802 15.7629056,79.383374 C15.7629056,78.7866183 16.2599848,78.2893969 16.8570202,78.2893969" id="Fill-41"></path>
                <path d="M29.2831012,79.7481832 C31.4551214,79.7481832 32.4497302,78.2227405 32.8806223,77.1616412 L33.2953052,77.3107176 C32.8972816,78.7866183 31.537968,80.4778015 29.0345616,80.4778015 C25.5698651,80.4778015 23.5639882,78.007458 23.5639882,74.7075115 C23.5639882,70.992313 26.2826155,69.0029771 29.4487943,69.0029771 C30.5600185,69.0029771 31.6541332,69.2015954 32.7649073,69.6330611 L33.0134469,72.9492214 L32.7315885,72.9492214 C32.1512125,70.4122214 31.00757,69.5497405 29.1507268,69.5497405 C27.310543,69.5497405 25.4208314,70.992313 25.4208314,74.7237252 C25.4208314,77.7255191 26.9458381,79.7481832 29.2831012,79.7481832" id="Fill-42"></path>
                <path d="M37.2386206,68.4390992 C37.2219612,69.2349237 37.2053019,70.1802748 37.2053019,71.7390458 L37.2053019,78.0403359 C37.2053019,79.615771 37.2219612,79.8481679 38.3822631,80.0301221 L38.3822631,80.2791832 L34.5028836,80.2791832 L34.5028836,80.0301221 C35.6636358,79.8481679 35.6802951,79.615771 35.6802951,78.0403359 L35.6802951,71.0918473 C35.6802951,69.8483435 35.6802951,69.3177939 34.5028836,69.2678015 L34.5028836,69.0196412 L37.2386206,68.4390992" id="Fill-43"></path>
                <path d="M44.2666189,78.7037481 L44.316597,75.8848092 C42.6092378,76.150084 41.8131906,76.448687 41.5646509,76.6473053 C41.0675717,77.0121145 40.9514064,77.526 40.9514064,77.9074733 C40.9514064,79.0190153 41.6970253,79.4500305 42.5263912,79.4500305 C43.2058229,79.4500305 43.8357268,79.2342977 44.2666189,78.7037481 Z M44.3827841,78.9356947 C43.9023642,79.7319695 43.2720101,80.4778015 41.879828,80.4778015 C40.4871956,80.4778015 39.4426088,79.615771 39.4426088,78.2893969 C39.4426088,76.9459084 40.5205143,76.3324885 41.7141349,75.967229 C42.2940607,75.7848244 43.1562951,75.569542 44.316597,75.337145 L44.3332563,74.8732519 C44.366575,73.3802366 43.6866931,72.8668015 42.6425565,72.8668015 C41.6808162,72.8668015 40.7857133,73.4635573 40.503855,74.5246565 L39.8406324,74.4422366 C40.0729629,73.0654198 41.5151231,72.0209847 43.0901079,72.0209847 C44.5484772,72.0209847 45.7920759,72.6672824 45.7754165,74.3755802 L45.7258887,78.0898779 C45.7092293,79.3504962 45.8416037,79.7981756 47.0518836,79.8481679 L47.0518836,80.0963282 L44.5655868,80.3782672 L44.3827841,78.9356947 Z" id="Fill-44"></path>
                <path d="M50.3990641,73.5130992 C51.1284739,72.5182061 52.0406863,71.9376641 53.250516,72.0376489 L53.250516,73.9441145 L53.1014823,73.9441145 C52.7367774,73.6788397 52.1730607,73.4802214 51.6260034,73.4802214 C51.1451332,73.4802214 50.6975818,73.5630916 50.4157234,73.8616947 L50.4157234,78.0403359 C50.4157234,79.615771 50.4323828,79.8481679 51.5926847,80.0301221 L51.5926847,80.2791832 L47.7137555,80.2791832 L47.7137555,80.0301221 C48.8740573,79.8481679 48.8902664,79.615771 48.8902664,78.0403359 L48.8902664,74.6903969 C48.8902664,73.4468931 48.8902664,72.9163435 47.7137555,72.8668015 L47.7137555,72.6177405 L50.3661956,72.0209847 L50.3990641,73.5130992" id="Fill-45"></path>
                <path d="M58.9025413,78.7037481 L58.9525194,75.8848092 C57.2447099,76.150084 56.449113,76.448687 56.2001231,76.6473053 C55.7030438,77.0121145 55.5868786,77.526 55.5868786,77.9074733 C55.5868786,79.0190153 56.3329477,79.4500305 57.1618634,79.4500305 C57.8412951,79.4500305 58.4716492,79.2342977 58.9025413,78.7037481 Z M59.0187066,78.9356947 C58.5378364,79.7319695 57.9079325,80.4778015 56.5153002,80.4778015 C55.1226678,80.4778015 54.0780809,79.615771 54.0780809,78.2893969 C54.0780809,76.9459084 55.1559865,76.3324885 56.3496071,75.967229 C56.9295329,75.7848244 57.7917673,75.569542 58.9525194,75.337145 L58.9687285,74.8732519 C59.0020472,73.3802366 58.3221653,72.8668015 57.2780287,72.8668015 C56.3162884,72.8668015 55.4211855,73.4635573 55.1393272,74.5246565 L54.4761046,74.4422366 C54.7084351,73.0654198 56.1505953,72.0209847 57.7255801,72.0209847 C59.1843997,72.0209847 60.4275481,72.6672824 60.4108887,74.3755802 L60.3613609,78.0898779 C60.3447015,79.3504962 60.4775261,79.7981756 61.6878061,79.8481679 L61.6878061,80.0963282 L59.201059,80.3782672 L59.0187066,78.9356947 Z" id="Fill-46"></path>
                <path d="M67.8697791,74.640855 L67.5050742,74.640855 C67.2727437,73.5964198 66.8418516,72.6177405 65.5154064,72.6177405 C64.7364688,72.6177405 63.9075531,73.032542 63.9075531,73.8445802 C63.9075531,74.4917786 64.4212917,74.8894656 65.1840202,75.1551908 L66.1124418,75.4700076 C67.4717555,75.9343511 68.3506492,76.6306412 68.3506492,77.9574656 C68.3506492,79.5991069 66.8418516,80.4778015 65.2835261,80.4778015 C64.4212917,80.4778015 63.5595076,80.2958473 62.7305919,79.8977099 L62.7305919,77.0621069 L63.0453187,77.0621069 C63.2443305,78.3389389 63.6752226,79.7815115 65.3335042,79.7815115 C66.1619696,79.7815115 67.0575228,79.383374 67.0737319,78.405145 C67.0737319,77.7417328 66.6095211,77.2278473 65.6810995,76.9125802 L64.7531282,76.5977634 C63.5261889,76.1829618 62.7139325,75.5195496 62.7139325,74.2593817 C62.7139325,72.7668168 64.3384452,72.0209847 65.7810556,72.0209847 C66.4109595,72.0209847 67.1732378,72.1200687 67.8697791,72.3853435 L67.8697791,74.640855" id="Fill-47"></path>
                <path d="M72.1786998,79.084771 C72.510086,79.5991069 73.239946,79.9472519 74.0188836,79.9472519 C75.5438904,79.9472519 76.2237723,78.5375573 76.2237723,76.6144275 C76.2237723,74.4917786 75.1958449,73.082084 73.7203659,73.082084 C73.1237808,73.082084 72.5267454,73.2478244 72.1786998,73.7126183 L72.1786998,79.084771 Z M70.6532428,74.6903969 C70.6532428,73.4468931 70.6532428,72.9163435 69.4762816,72.8668015 L69.4762816,72.6177405 L72.1287218,72.0209847 L72.1453811,73.3306947 C72.6262513,72.6177405 73.4718263,72.0209847 74.565941,72.0209847 C76.5884772,72.0209847 77.8316256,73.8945725 77.8316256,76.0505496 C77.8316256,78.6370916 75.9752327,80.4778015 74.0022243,80.4778015 C73.4718263,80.4778015 72.7590759,80.3782672 72.1786998,79.9972443 L72.1786998,81.3236183 C72.1786998,82.8990534 72.1953592,83.1314504 73.6874975,83.313855 L73.6874975,83.5624656 L69.4762816,83.5624656 L69.4762816,83.313855 C70.6370337,83.1314504 70.6532428,82.8990534 70.6532428,81.3236183 L70.6532428,74.6903969 Z" id="Fill-48"></path>
                <path d="M79.7699646,69.5168626 C79.7699646,68.9363206 80.2503845,68.4719771 80.8474199,68.4719771 C81.4440051,68.4719771 81.9086661,68.9363206 81.9086661,69.5168626 C81.9086661,70.0969542 81.4440051,70.5446336 80.8474199,70.5446336 C80.2503845,70.5446336 79.7699646,70.0969542 79.7699646,69.5168626 Z M81.7096543,72.0209847 C81.6929949,72.8168092 81.6763356,73.778374 81.6763356,75.337145 L81.6763356,78.0403359 C81.6763356,79.615771 81.6929949,79.8481679 82.8532968,80.0301221 L82.8532968,80.2791832 L78.9739174,80.2791832 L78.9739174,80.0301221 C80.1346695,79.8481679 80.1508786,79.615771 80.1508786,78.0403359 L80.1508786,74.6903969 C80.1508786,73.4468931 80.1508786,72.9163435 78.9739174,72.8668015 L78.9739174,72.6177405 L81.7096543,72.0209847 Z" id="Fill-49"></path>
                <path d="M84.9577791,78.1565344 L84.9577791,72.7506031 L83.6151248,72.7506031 L83.6151248,72.1533969 L84.9577791,72.1533969 L84.9577791,70.6774962 L86.4827858,69.6659389 L86.4827858,72.1533969 L88.7871804,72.1533969 L88.7871804,72.7506031 L86.4827858,72.7506031 L86.4827858,77.8745954 C86.4827858,79.0685573 86.9303373,79.4666947 87.6764064,79.4666947 C88.2401231,79.4666947 88.7209933,79.2505115 89.0690388,78.9190305 L89.2018634,79.035229 C88.7705211,79.7815115 88.1077487,80.4778015 86.963656,80.4778015 C85.8033541,80.4778015 84.9577791,79.8310534 84.9577791,78.1565344" id="Fill-50"></path>
                <path d="M94.8534384,78.7037481 L94.9034165,75.8848092 C93.1956071,76.150084 92.4000101,76.448687 92.1514705,76.6473053 C91.653941,77.0121145 91.5377757,77.526 91.5377757,77.9074733 C91.5377757,79.0190153 92.2838449,79.4500305 93.1127605,79.4500305 C93.7926425,79.4500305 94.4225464,79.2342977 94.8534384,78.7037481 Z M94.9696037,78.9356947 C94.4887336,79.7319695 93.8588297,80.4778015 92.4661973,80.4778015 C91.0735649,80.4778015 90.0294283,79.615771 90.0294283,78.2893969 C90.0294283,76.9459084 91.1068836,76.3324885 92.3005042,75.967229 C92.8808803,75.7848244 93.7426644,75.569542 94.9034165,75.337145 L94.9196256,74.8732519 C94.9529444,73.3802366 94.2730624,72.8668015 93.2289258,72.8668015 C92.2671855,72.8668015 91.3720826,73.4635573 91.0902243,74.5246565 L90.4270017,74.4422366 C90.6593322,73.0654198 92.1014924,72.0209847 93.6764772,72.0209847 C95.1352968,72.0209847 96.3788954,72.6672824 96.3622361,74.3755802 L96.312258,78.0898779 C96.2960489,79.3504962 96.4284233,79.7981756 97.6387032,79.8481679 L97.6387032,80.0963282 L95.1519562,80.3782672 L94.9696037,78.9356947 Z" id="Fill-51"></path>
                <path d="M100.903037,68.4390992 C100.886378,69.2349237 100.869718,70.1802748 100.869718,71.7390458 L100.869718,78.0403359 C100.869718,79.615771 100.886378,79.8481679 102.04668,80.0301221 L102.04668,80.2791832 L98.1673002,80.2791832 L98.1673002,80.0301221 C99.3280523,79.8481679 99.3447116,79.615771 99.3447116,78.0403359 L99.3447116,71.0918473 C99.3447116,69.8483435 99.3447116,69.3177939 98.1673002,69.2678015 L98.1673002,69.0196412 L100.903037,68.4390992" id="Fill-52"></path>
                <path d="M114.09725,77.8079389 C114.09725,79.2009695 114.246734,79.566229 115.257551,79.6324351 L115.257551,79.8810458 L112.771255,80.2791832 L112.621771,78.9356947 C112.190879,79.6819771 111.461469,80.4778015 110.284508,80.4778015 C108.958062,80.4778015 107.963454,79.6324351 107.963454,77.426916 C107.963454,76.4320229 107.980113,75.4204656 107.980113,74.4255725 C107.980113,73.1816183 107.980113,72.6510687 106.803152,72.6010763 L106.803152,72.3691298 L109.538438,72.1200687 C109.521779,72.9163435 109.50512,73.6955038 109.50512,75.0885344 L109.50512,77.128313 C109.50512,78.6704198 109.869825,79.4333664 110.897752,79.4333664 C111.594293,79.4333664 112.15801,79.1014351 112.572243,78.4384733 L112.572243,74.4255725 C112.572243,73.1816183 112.572243,72.6510687 111.395282,72.6010763 L111.395282,72.3691298 L114.130568,72.1200687 C114.113909,72.9163435 114.09725,73.6955038 114.09725,75.0885344 L114.09725,77.8079389" id="Fill-53"></path>
                <path d="M123.644413,78.0403359 C123.644413,79.615771 123.661073,79.8481679 124.821825,80.0301221 L124.821825,80.2791832 L120.942445,80.2791832 L120.942445,80.0301221 C122.103197,79.8481679 122.119406,79.615771 122.119406,78.0403359 L122.119406,75.2047328 C122.119406,73.7621603 121.688514,73.082084 120.627268,73.082084 C119.947836,73.082084 119.301273,73.2978168 118.969887,73.7621603 L118.969887,78.0403359 C118.969887,79.615771 118.986096,79.8481679 120.146848,80.0301221 L120.146848,80.2791832 L116.267469,80.2791832 L116.267469,80.0301221 C117.427771,79.8481679 117.44443,79.615771 117.44443,78.0403359 L117.44443,74.6903969 C117.44443,73.4468931 117.44443,72.9163435 116.267469,72.8668015 L116.267469,72.6177405 L118.936568,72.0209847 L118.969887,73.3306947 C119.516494,72.6010763 120.245904,72.0209847 121.389997,72.0209847 C122.699782,72.0209847 123.644413,72.8996794 123.644413,74.9061298 L123.644413,78.0403359" id="Fill-54"></path>
                <path d="M127.173946,75.8514809 C127.173946,77.9736794 128.218533,79.4167023 129.693562,79.4167023 C130.290597,79.4167023 130.887182,79.2176336 131.235678,78.7204122 L131.235678,73.4135649 C130.903841,72.8996794 130.174432,72.551084 129.395494,72.551084 C127.870037,72.551084 127.173946,73.9279008 127.173946,75.8514809 Z M131.235678,71.0918473 C131.235678,69.8483435 131.235678,69.3177939 129.892573,69.2678015 L129.892573,69.0196412 L132.794003,68.4390992 C132.777344,69.2349237 132.760685,70.1802748 132.760685,71.7390458 L132.760685,77.8417176 C132.760685,79.2342977 132.909718,79.5991069 134.08713,79.665313 L134.08713,79.914374 L131.467558,80.3949313 L131.268546,79.1014351 C130.788126,79.8810458 129.942551,80.4778015 128.847987,80.4778015 C126.825901,80.4778015 125.565642,78.5713359 125.565642,76.4153588 C125.565642,73.827916 127.439145,72.0209847 129.411703,72.0209847 C129.942551,72.0209847 130.655302,72.1367328 131.235678,72.5182061 L131.235678,71.0918473 Z" id="Fill-55"></path>
                <path d="M15.1293997,94.4963817 C15.1293997,97.663916 13.7862951,99.2389008 10.9348432,99.2389008 C7.85151096,99.2389008 6.84024283,97.4319695 6.84024283,94.8945191 L6.84024283,90.2677481 C6.84024283,88.692313 6.65789039,88.4603664 5.33144519,88.2779618 L5.33144519,88.0293511 L10.0068718,88.0293511 L10.0068718,88.2779618 C8.68042664,88.4603664 8.4980742,88.692313 8.4980742,90.2677481 L8.4980742,94.7454427 C8.4980742,97.1162519 9.3603086,98.5092824 11.3661855,98.5092824 C13.7201079,98.5092824 14.3833305,96.7190153 14.3833305,94.5130458 L14.3833305,90.251084 C14.3833305,88.6760992 14.2009781,88.4603664 12.8745329,88.2779618 L12.8745329,88.0293511 L16.637747,88.0293511 L16.637747,88.2779618 C15.3117521,88.4603664 15.1293997,88.6760992 15.1293997,90.251084 L15.1293997,94.4963817" id="Fill-56"></path>
                <path d="M24.4437825,96.8014351 C24.4437825,98.3768702 24.4604418,98.6092672 25.6207437,98.7912214 L25.6207437,99.0402824 L21.7418145,99.0402824 L21.7418145,98.7912214 C22.9021164,98.6092672 22.9187757,98.3768702 22.9187757,96.8014351 L22.9187757,93.9658321 C22.9187757,92.5232595 22.4874334,91.8431832 21.4266374,91.8431832 C20.7472057,91.8431832 20.1006425,92.058916 19.7688061,92.5232595 L19.7688061,96.8014351 C19.7688061,98.3768702 19.7854654,98.6092672 20.9462175,98.7912214 L20.9462175,99.0402824 L17.0668381,99.0402824 L17.0668381,98.7912214 C18.22714,98.6092672 18.2437993,98.3768702 18.2437993,96.8014351 L18.2437993,93.4519466 C18.2437993,92.2079924 18.2437993,91.6774427 17.0668381,91.6279008 L17.0668381,91.3788397 L19.7359376,90.782084 L19.7688061,92.0917939 C20.3158634,91.3621756 21.0452732,90.782084 22.1893659,90.782084 C23.4987015,90.782084 24.4437825,91.6607786 24.4437825,93.667229 L24.4437825,96.8014351" id="Fill-57"></path>
                <path d="M27.2272462,88.2779618 C27.2272462,87.6974198 27.7081164,87.2330763 28.3047015,87.2330763 C28.9017369,87.2330763 29.3659477,87.6974198 29.3659477,88.2779618 C29.3659477,88.8580534 28.9017369,89.3061832 28.3047015,89.3061832 C27.7081164,89.3061832 27.2272462,88.8580534 27.2272462,88.2779618 Z M29.1669359,90.782084 C29.1502766,91.5783588 29.1336172,92.5394733 29.1336172,94.0982443 L29.1336172,96.8014351 C29.1336172,98.3768702 29.1502766,98.6092672 30.3105784,98.7912214 L30.3105784,99.0402824 L26.4316492,99.0402824 L26.4316492,98.7912214 C27.5919511,98.6092672 27.6081602,98.3768702 27.6081602,96.8014351 L27.6081602,93.4519466 C27.6081602,92.2079924 27.6081602,91.6774427 26.4316492,91.6279008 L26.4316492,91.3788397 L29.1669359,90.782084 Z" id="Fill-58"></path>
                <path d="M34.702796,99.2389008 L31.7351788,92.2079924 C31.4371113,91.4950382 31.2543086,91.2626412 30.7077015,91.1464427 L30.7077015,90.9144962 L34.2885632,90.9144962 L34.2885632,91.1464427 C33.1278111,91.3621756 33.1944486,91.6607786 33.492516,92.3903969 L35.3164907,96.9176336 L36.924344,93.2033359 C37.5542479,91.7274351 37.5047201,91.3788397 36.509661,91.1464427 L36.509661,90.9144962 L39.1954199,90.9144962 L39.1954199,91.1464427 C38.5159882,91.3621756 38.300317,91.6441145 37.8527656,92.689 L35.0013137,99.2389008 L34.702796,99.2389008" id="Fill-59"></path>
                <path d="M40.7857133,93.4686107 L44.6484334,93.4686107 C44.5655868,92.2413206 43.9852108,91.3292977 42.8082496,91.3292977 C41.9293558,91.3292977 40.9351973,91.9755954 40.7857133,93.4686107 Z M39.3930809,95.0440458 C39.3930809,92.6556718 41.0675717,90.782084 43.1067673,90.782084 C44.8474452,90.782084 46.3391332,91.7936412 46.3562428,94.0653664 L40.7523946,94.0653664 L40.7523946,94.4635038 C40.7523946,96.7019008 41.9793339,97.8129924 43.7200118,97.8129924 C44.8641046,97.8129924 45.842054,97.1829084 46.3391332,95.9889466 L46.5714637,96.0551527 C46.2562867,97.2991069 45.2121501,99.2389008 43.0401298,99.2389008 C40.6033609,99.2389008 39.3930809,97.2991069 39.3930809,95.0440458 Z" id="Fill-60"></path>
                <path d="M50.3000084,92.2741985 C51.0294182,91.2793053 51.9411804,90.6987634 53.1514604,90.7987481 L53.1514604,92.7052137 L53.0024266,92.7052137 C52.6377218,92.4403893 52.0740051,92.2413206 51.5264975,92.2413206 C51.0460776,92.2413206 50.5985261,92.3241908 50.3166678,92.6227939 L50.3166678,96.8014351 C50.3166678,98.3768702 50.3333272,98.6092672 51.493629,98.7912214 L51.493629,99.0402824 L47.6142496,99.0402824 L47.6142496,98.7912214 C48.7750017,98.6092672 48.7912108,98.3768702 48.7912108,96.8014351 L48.7912108,93.4519466 C48.7912108,92.2079924 48.7912108,91.6774427 47.6142496,91.6279008 L47.6142496,91.3788397 L50.26714,90.782084 L50.3000084,92.2741985" id="Fill-61"></path>
                <path d="M59.5990826,93.4019542 L59.2343777,93.4019542 C59.0020472,92.3575191 58.5711551,91.3788397 57.2451602,91.3788397 C56.4657723,91.3788397 55.6368567,91.7936412 55.6368567,92.6061298 C55.6368567,93.2528779 56.1505953,93.6505649 56.9133238,93.9162901 L57.8417454,94.2311069 C59.201059,94.6954504 60.0799528,95.3917405 60.0799528,96.7190153 C60.0799528,98.3602061 58.5711551,99.2389008 57.0132799,99.2389008 C56.1505953,99.2389008 55.2888111,99.0569466 54.4598954,98.6588092 L54.4598954,95.8232061 L54.7750725,95.8232061 C54.9740843,97.1000382 55.4049764,98.5426107 57.0628078,98.5426107 C57.8917234,98.5426107 58.7868263,98.1449237 58.8034857,97.1666947 C58.8034857,96.5028321 58.3392749,95.9889466 57.4108533,95.6736794 L56.4824317,95.3588626 C55.2554924,94.9440611 54.4432361,94.2806489 54.4432361,93.0209313 C54.4432361,91.527916 56.0677487,90.782084 57.5103592,90.782084 C58.1402631,90.782084 58.9029916,90.8816183 59.5990826,91.1464427 L59.5990826,93.4019542" id="Fill-62"></path>
                <path d="M62.2168533,88.2779618 C62.2168533,87.6974198 62.6977234,87.2330763 63.2947589,87.2330763 C63.891344,87.2330763 64.3555548,87.6974198 64.3555548,88.2779618 C64.3555548,88.8580534 63.891344,89.3061832 63.2947589,89.3061832 C62.6977234,89.3061832 62.2168533,88.8580534 62.2168533,88.2779618 Z M64.156543,90.782084 C64.1398836,91.5783588 64.1236745,92.5394733 64.1236745,94.0982443 L64.1236745,96.8014351 C64.1236745,98.3768702 64.1398836,98.6092672 65.3006358,98.7912214 L65.3006358,99.0402824 L61.4212563,99.0402824 L61.4212563,98.7912214 C62.5815582,98.6092672 62.5982175,98.3768702 62.5982175,96.8014351 L62.5982175,93.4519466 C62.5982175,92.2079924 62.5982175,91.6774427 61.4212563,91.6279008 L61.4212563,91.3788397 L64.156543,90.782084 Z" id="Fill-63"></path>
                <path d="M67.405118,96.9176336 L67.405118,91.5117023 L66.0620135,91.5117023 L66.0620135,90.9144962 L67.405118,90.9144962 L67.405118,89.4390458 L68.9301248,88.4270382 L68.9301248,90.9144962 L71.2345194,90.9144962 L71.2345194,91.5117023 L68.9301248,91.5117023 L68.9301248,96.6356947 C68.9301248,97.8296565 69.3776762,98.2277939 70.1237454,98.2277939 C70.6874621,98.2277939 71.1683322,98.0120611 71.5163777,97.6801298 L71.6487521,97.7963282 C71.21786,98.5426107 70.5546374,99.2389008 69.4109949,99.2389008 C68.2506931,99.2389008 67.405118,98.5926031 67.405118,96.9176336" id="Fill-64"></path>
                <path d="M77.5992951,87.8136183 C78.1130337,87.8136183 78.5277167,88.2284198 78.5277167,88.7589695 C78.5277167,89.3228473 78.1130337,89.7205344 77.5992951,89.7205344 C77.0517875,89.7205344 76.6542142,89.3228473 76.6542142,88.7589695 C76.6542142,88.2284198 77.0517875,87.8136183 77.5992951,87.8136183 Z M77.3007774,97.4648473 L77.3503052,94.6459084 C75.642946,94.9111832 74.8468988,95.2097863 74.5983592,95.4084046 C74.1012799,95.7732137 73.9851147,96.2875496 73.9851147,96.6685725 C73.9851147,97.7801145 74.7311838,98.2111298 75.5600995,98.2111298 C76.2395312,98.2111298 76.8698853,97.9958473 77.3007774,97.4648473 Z M74.2836324,87.8136183 C74.797371,87.8136183 75.2116037,88.2284198 75.2116037,88.7589695 C75.2116037,89.3228473 74.797371,89.7205344 74.2836324,89.7205344 C73.736575,89.7205344 73.3385514,89.3228473 73.3385514,88.7589695 C73.3385514,88.2284198 73.736575,87.8136183 74.2836324,87.8136183 Z M77.4164924,97.6967939 C76.9360725,98.4930687 76.3061686,99.2389008 74.9135363,99.2389008 C73.5209039,99.2389008 72.476317,98.3768702 72.476317,97.0504962 C72.476317,95.7070076 73.5542226,95.0935878 74.7478432,94.7287786 C75.327769,94.5459237 76.1900034,94.3306412 77.3503052,94.0982443 L77.3669646,93.6343511 C77.4002833,92.1413359 76.7204013,91.6279008 75.6762648,91.6279008 C74.7145245,91.6279008 73.8194216,92.2246565 73.5375632,93.2857557 L72.8743406,93.2033359 C73.1066712,91.8265191 74.5488314,90.782084 76.1238162,90.782084 C77.5826358,90.782084 78.8257841,91.4283817 78.8091248,93.1366794 L78.759597,96.8514275 C78.7429376,98.1115954 78.8757622,98.5592748 80.0860422,98.6092672 L80.0860422,98.8578779 L77.5992951,99.1398168 L77.4164924,97.6967939 Z" id="Fill-65"></path>
                <path d="M81.8582378,96.9176336 L81.8582378,91.5117023 L80.5151332,91.5117023 L80.5151332,90.9144962 L81.8582378,90.9144962 L81.8582378,89.4390458 L83.3832445,88.4270382 L83.3832445,90.9144962 L85.6876391,90.9144962 L85.6876391,91.5117023 L83.3832445,91.5117023 L83.3832445,96.6356947 C83.3832445,97.8296565 83.830796,98.2277939 84.5768651,98.2277939 C85.1405818,98.2277939 85.6214519,98.0120611 85.9694975,97.6801298 L86.1018718,97.7963282 C85.6709798,98.5426107 85.0077572,99.2389008 83.8641147,99.2389008 C82.7038128,99.2389008 81.8582378,98.5926031 81.8582378,96.9176336" id="Fill-66"></path>
                <path d="M92.383801,93.4019542 L92.0190961,93.4019542 C91.7867656,92.3575191 91.3558735,91.3788397 90.0298786,91.3788397 C89.2504907,91.3788397 88.421575,91.7936412 88.421575,92.6061298 C88.421575,93.2528779 88.9353137,93.6505649 89.6980422,93.9162901 L90.6264637,94.2311069 C91.9857774,94.6954504 92.8646712,95.3917405 92.8646712,96.7190153 C92.8646712,98.3602061 91.3558735,99.2389008 89.7975481,99.2389008 C88.9353137,99.2389008 88.0735295,99.0569466 87.2446138,98.6588092 L87.2446138,95.8232061 L87.5597909,95.8232061 C87.7588027,97.1000382 88.1896948,98.5426107 89.8475261,98.5426107 C90.6764418,98.5426107 91.5715447,98.1449237 91.588204,97.1666947 C91.588204,96.5028321 91.1239933,95.9889466 90.1955717,95.6736794 L89.2671501,95.3588626 C88.0402108,94.9440611 87.2279545,94.2806489 87.2279545,93.0209313 C87.2279545,91.527916 88.8524671,90.782084 90.2950776,90.782084 C90.9249815,90.782084 91.6877099,90.8816183 92.383801,91.1464427 L92.383801,93.4019542" id="Fill-67"></path>
                <path d="M99.7265261,93.4019542 L99.3618212,93.4019542 C99.129941,92.3575191 98.6990489,91.3788397 97.3726037,91.3788397 C96.5932159,91.3788397 95.7643002,91.7936412 95.7643002,92.6061298 C95.7643002,93.2528779 96.278489,93.6505649 97.0407673,93.9162901 L97.9691889,94.2311069 C99.3285025,94.6954504 100.207396,95.3917405 100.207396,96.7190153 C100.207396,98.3602061 98.6990489,99.2389008 97.1407234,99.2389008 C96.278489,99.2389008 95.4162546,99.0569466 94.587339,98.6588092 L94.587339,95.8232061 L94.902516,95.8232061 C95.1015278,97.1000382 95.5324199,98.5426107 97.1902513,98.5426107 C98.0191669,98.5426107 98.9142698,98.1449237 98.9309292,97.1666947 C98.9309292,96.5028321 98.4667184,95.9889466 97.5382968,95.6736794 L96.6098752,95.3588626 C95.3829359,94.9440611 94.5711298,94.2806489 94.5711298,93.0209313 C94.5711298,91.527916 96.1951922,90.782084 97.6378027,90.782084 C98.2677066,90.782084 99.0304351,90.8816183 99.7265261,91.1464427 L99.7265261,93.4019542" id="Fill-68"></path>
                <path d="M104.035897,97.8458702 C104.367283,98.3602061 105.096693,98.7088015 105.875631,98.7088015 C107.401088,98.7088015 108.080519,97.2991069 108.080519,95.3755267 C108.080519,93.2528779 107.053042,91.8431832 105.577113,91.8431832 C104.980528,91.8431832 104.383492,92.009374 104.035897,92.4737176 L104.035897,97.8458702 Z M102.51044,93.4519466 C102.51044,92.2079924 102.51044,91.6774427 101.333479,91.6279008 L101.333479,91.3788397 L103.985919,90.782084 L104.002578,92.0917939 C104.483449,91.3788397 105.328573,90.782084 106.422688,90.782084 C108.445224,90.782084 109.688823,92.6556718 109.688823,94.8116489 C109.688823,97.3981908 107.83198,99.2389008 105.858971,99.2389008 C105.328573,99.2389008 104.615823,99.1398168 104.035897,98.7583435 L104.035897,100.084718 C104.035897,101.660153 104.052106,101.89255 105.544245,102.074954 L105.544245,102.323565 L101.333479,102.323565 L101.333479,102.074954 C102.493781,101.89255 102.51044,101.660153 102.51044,100.084718 L102.51044,93.4519466 Z" id="Fill-69"></path>
                <path d="M111.626712,88.2779618 C111.626712,87.6974198 112.107582,87.2330763 112.704167,87.2330763 C113.301202,87.2330763 113.765413,87.6974198 113.765413,88.2779618 C113.765413,88.8580534 113.301202,89.3061832 112.704167,89.3061832 C112.107582,89.3061832 111.626712,88.8580534 111.626712,88.2779618 Z M113.566401,90.782084 C113.549742,91.5783588 113.533083,92.5394733 113.533083,94.0982443 L113.533083,96.8014351 C113.533083,98.3768702 113.549742,98.6092672 114.710494,98.7912214 L114.710494,99.0402824 L110.831115,99.0402824 L110.831115,98.7912214 C111.991417,98.6092672 112.008076,98.3768702 112.008076,96.8014351 L112.008076,93.4519466 C112.008076,92.2079924 112.008076,91.6774427 110.831115,91.6279008 L110.831115,91.3788397 L113.566401,90.782084 Z" id="Fill-70"></path>
                <path d="M116.814526,96.9176336 L116.814526,91.5117023 L115.471422,91.5117023 L115.471422,90.9144962 L116.814526,90.9144962 L116.814526,89.4390458 L118.339533,88.4270382 L118.339533,90.9144962 L120.643927,90.9144962 L120.643927,91.5117023 L118.339533,91.5117023 L118.339533,96.6356947 C118.339533,97.8296565 118.787084,98.2277939 119.533153,98.2277939 C120.09687,98.2277939 120.57774,98.0120611 120.925786,97.6801298 L121.05861,97.7963282 C120.627268,98.5426107 119.964496,99.2389008 118.820403,99.2389008 C117.660101,99.2389008 116.814526,98.5926031 116.814526,96.9176336" id="Fill-71"></path>
                <path d="M126.710185,97.4648473 L126.760164,94.6459084 C125.052804,94.9111832 124.256757,95.2097863 124.008218,95.4084046 C123.510688,95.7732137 123.394973,96.2875496 123.394973,96.6685725 C123.394973,97.7801145 124.141042,98.2111298 124.969958,98.2111298 C125.64939,98.2111298 126.279293,97.9958473 126.710185,97.4648473 Z M126.826351,97.6967939 C126.345931,98.4930687 125.715577,99.2389008 124.323395,99.2389008 C122.930762,99.2389008 121.886175,98.3768702 121.886175,97.0504962 C121.886175,95.7070076 122.964081,95.0935878 124.157251,94.7287786 C124.737627,94.5459237 125.599862,94.3306412 126.760164,94.0982443 L126.776823,93.6343511 C126.810142,92.1413359 126.13026,91.6279008 125.086123,91.6279008 C124.124383,91.6279008 123.22883,92.2246565 122.947422,93.2857557 L122.284199,93.2033359 C122.516079,91.8265191 123.95869,90.782084 125.533675,90.782084 C126.992044,90.782084 128.235642,91.4283817 128.218983,93.1366794 L128.169455,96.8514275 C128.152796,98.1115954 128.28517,98.5592748 129.49545,98.6092672 L129.49545,98.8578779 L127.008703,99.1398168 L126.826351,97.6967939 Z" id="Fill-72"></path>
                <path d="M132.759784,87.2001985 C132.743125,87.9960229 132.726916,88.941374 132.726916,90.500145 L132.726916,96.8014351 C132.726916,98.3768702 132.743125,98.6092672 133.903427,98.7912214 L133.903427,99.0402824 L130.024497,99.0402824 L130.024497,98.7912214 C131.184799,98.6092672 131.201459,98.3768702 131.201459,96.8014351 L131.201459,89.8529466 C131.201459,88.6098931 131.201459,88.0788931 130.024497,88.0293511 L130.024497,87.7807405 L132.759784,87.2001985" id="Fill-73"></path>
                <path d="M99.4442175,116.756496 C99.4442175,117.204176 99.5937015,117.287046 100.256474,117.287046 C102.594187,117.287046 103.48929,116.391237 103.48929,114.683389 C103.48929,113.207489 102.77654,112.378336 100.621629,112.378336 L99.4442175,112.378336 L99.4442175,116.756496 Z M99.4442175,111.847786 L100.58831,111.847786 C102.461363,111.847786 103.041739,110.703366 103.041739,109.493191 C103.041739,107.93442 102.345648,107.337214 100.090781,107.337214 L99.4442175,107.337214 L99.4442175,111.847786 Z M98.0849039,106.79 C99.2452057,106.79 99.8755599,106.757122 100.35643,106.757122 C103.555927,106.757122 104.766207,107.619153 104.766207,109.24413 C104.766207,110.537626 103.771148,111.516305 102.528,111.897779 L102.528,111.930656 C103.754939,112.163053 105.312815,112.92555 105.312815,114.567191 C105.312815,116.15929 104.235359,117.833809 100.488804,117.833809 C99.9584064,117.833809 99.3946897,117.800931 98.0520354,117.800931 L96.2780388,117.800931 L96.2780388,117.55187 C97.6040337,117.369916 97.7868364,117.137519 97.7868364,115.562084 L97.7868364,109.028847 C97.7868364,107.453412 97.6040337,107.221015 96.2780388,107.039061 L96.2780388,106.79 L98.0849039,106.79 Z" id="Fill-74"></path>
                <path d="M111.212929,116.225496 L111.262907,113.406557 C109.555098,113.671832 108.759501,113.970435 108.510961,114.169504 C108.013432,114.533863 107.897266,115.048198 107.897266,115.429672 C107.897266,116.540763 108.643336,116.971779 109.472251,116.971779 C110.152133,116.971779 110.782037,116.756496 111.212929,116.225496 Z M111.329094,116.457893 C110.848224,117.253718 110.21832,118 108.825688,118 C107.433056,118 106.388919,117.137519 106.388919,115.811145 C106.388919,114.468107 107.466374,113.854237 108.659995,113.489427 C109.240371,113.307023 110.102155,113.09129 111.262907,112.858893 L111.279116,112.395 C111.312435,110.902885 110.632553,110.38855 109.588417,110.38855 C108.626676,110.38855 107.731573,110.985305 107.449715,112.046855 L106.786492,111.963534 C107.018823,110.587618 108.460983,109.542733 110.035968,109.542733 C111.494788,109.542733 112.738386,110.189481 112.721727,111.897779 L112.671749,115.612076 C112.65554,116.872695 112.787914,117.320374 113.998194,117.369916 L113.998194,117.618527 L111.511447,117.900466 L111.329094,116.457893 Z" id="Fill-75"></path>
                <path d="M120.180167,112.163053 L119.815462,112.163053 C119.583132,111.118168 119.152239,110.139489 117.825794,110.139489 C117.046857,110.139489 116.217941,110.55429 116.217941,111.366779 C116.217941,112.013977 116.73168,112.411214 117.494408,112.676939 L118.42283,112.991756 C119.782143,113.45655 120.661037,114.15284 120.661037,115.479664 C120.661037,117.120855 119.152239,118 117.593914,118 C116.73168,118 115.869895,117.817595 115.04098,117.419458 L115.04098,114.584305 L115.356157,114.584305 C115.555169,115.861137 115.986061,117.30371 117.643892,117.30371 C118.472808,117.30371 119.367911,116.905573 119.38412,115.927344 C119.38412,115.263481 118.920359,114.750046 117.991938,114.434779 L117.063516,114.119511 C115.836577,113.70471 115.02432,113.041748 115.02432,111.78158 C115.02432,110.288565 116.648833,109.542733 118.091444,109.542733 C118.721347,109.542733 119.484076,109.642267 120.180167,109.907542 L120.180167,112.163053" id="Fill-76"></path>
                <path d="M123.328336,112.22926 L127.191056,112.22926 C127.108209,111.001969 126.528283,110.089947 125.350872,110.089947 C124.472428,110.089947 123.47782,110.736695 123.328336,112.22926 Z M121.935703,113.804695 C121.935703,111.416321 123.610194,109.542733 125.64939,109.542733 C127.390067,109.542733 128.882206,110.55429 128.898865,112.826015 L123.295017,112.826015 L123.295017,113.224153 C123.295017,115.463 124.521956,116.574092 126.262634,116.574092 C127.406727,116.574092 128.384676,115.943557 128.882206,114.750046 L129.114086,114.815802 C128.799359,116.059756 127.754772,118 125.583202,118 C123.145983,118 121.935703,116.059756 121.935703,113.804695 Z" id="Fill-77"></path>
                <path d="M132.759784,105.960847 C132.743125,106.757122 132.726916,107.702023 132.726916,109.260794 L132.726916,115.562084 C132.726916,117.137519 132.743125,117.369916 133.903427,117.55187 L133.903427,117.800931 L130.024497,117.800931 L130.024497,117.55187 C131.184799,117.369916 131.201459,117.137519 131.201459,115.562084 L131.201459,108.614046 C131.201459,107.370542 131.201459,106.839542 130.024497,106.79 L130.024497,106.541389 L132.759784,105.960847" id="Fill-78"></path>
                <path d="M107.804064,52.7869847 C92.6264874,52.7869847 80.2787504,40.4357176 80.2787504,25.2538015 C80.2787504,14.3613206 86.7196189,4.47499237 96.6873187,0.0662061069 L96.8692209,0.478305344 C87.0645126,4.81503053 80.7290034,14.5396718 80.7290034,25.2538015 C80.7290034,40.1875573 92.8745767,52.3366031 107.804064,52.3366031 C122.733551,52.3366031 134.879125,40.1875573 134.879125,25.2538015 C134.879125,14.5896641 128.585039,4.88303817 118.844266,0.525145038 L119.02797,0.113946565 C128.930833,4.54435115 135.329378,14.4122137 135.329378,25.2538015 C135.329378,40.4357176 122.981641,52.7869847 107.804064,52.7869847" id="Fill-79"></path>
                <path d="M102.348799,35.3765802 C100.550939,34.3361985 99.1308415,32.9048855 98.0907572,31.083542 C97.0502226,29.2621985 96.5301804,27.2431374 96.5301804,25.025458 C96.5301804,22.808229 97.0502226,20.7945725 98.0907572,18.9844885 C99.1308415,17.1744046 100.556342,15.7552519 102.365909,14.725229 C104.175476,13.6961069 106.188106,13.1808702 108.405152,13.1808702 C110.011204,13.1808702 111.560524,13.4583053 113.053113,14.0122748 C114.546152,14.567145 115.857739,15.3760305 116.989224,16.4393817 L114.715897,20.8170916 C112.90588,18.8944122 110.791042,17.9323969 108.370933,17.9323969 C107.036383,17.9323969 105.826553,18.2323511 104.740993,18.8318092 C103.654983,19.4317176 102.807157,20.2739313 102.196164,21.3602519 C101.585621,22.4461221 101.280349,23.6797176 101.280349,25.0592366 C101.280349,26.4396565 101.585621,27.6723511 102.196164,28.7586718 C102.807157,29.844542 103.64958,30.6876565 104.723884,31.2871145 C105.798187,31.8865725 107.002164,32.1860763 108.337164,32.1860763 C109.943216,32.1860763 111.492536,31.8131603 112.985575,31.0664275 L113.969378,35.7157176 C112.046798,36.530458 110.169693,36.9376031 108.337164,36.9376031 C106.143081,36.9376031 104.14711,36.4174122 102.348799,35.3765802" id="Fill-80"></path>
            </g>
        </g>
    </g>
</svg>